<mxfile host="app.diagrams.net" agent="Mozilla/5.0 (Windows NT 10.0; Win64; x64) AppleWebKit/537.36 (KHTML, like Gecko) Chrome/131.0.0.0 Safari/537.36" version="26.0.8">
  <diagram name="Page-1" id="psioz2_gUKKFnPZhxROE">
    <mxGraphModel dx="2308" dy="725" grid="1" gridSize="10" guides="1" tooltips="1" connect="1" arrows="1" fold="1" page="1" pageScale="1" pageWidth="900" pageHeight="1600" math="0" shadow="0">
      <root>
        <mxCell id="0" />
        <mxCell id="1" parent="0" />
        <mxCell id="mW63rpHX_9EoTPeY_-Ee-2" value="Camera Lens" style="swimlane;whiteSpace=wrap;html=1;" vertex="1" parent="1">
          <mxGeometry x="-80" y="60" width="890" height="470" as="geometry" />
        </mxCell>
        <mxCell id="mW63rpHX_9EoTPeY_-Ee-1" value="1" style="rounded=0;whiteSpace=wrap;html=1;" vertex="1" parent="mW63rpHX_9EoTPeY_-Ee-2">
          <mxGeometry x="240" y="160" width="410" height="170" as="geometry" />
        </mxCell>
        <mxCell id="mW63rpHX_9EoTPeY_-Ee-3" value="2" style="rounded=0;whiteSpace=wrap;html=1;" vertex="1" parent="mW63rpHX_9EoTPeY_-Ee-2">
          <mxGeometry x="650" y="20" width="120" height="450" as="geometry" />
        </mxCell>
        <mxCell id="mW63rpHX_9EoTPeY_-Ee-4" value="3" style="rounded=0;whiteSpace=wrap;html=1;" vertex="1" parent="mW63rpHX_9EoTPeY_-Ee-2">
          <mxGeometry x="770" y="20" width="120" height="450" as="geometry" />
        </mxCell>
        <mxCell id="mW63rpHX_9EoTPeY_-Ee-5" value="2" style="rounded=0;whiteSpace=wrap;html=1;" vertex="1" parent="mW63rpHX_9EoTPeY_-Ee-2">
          <mxGeometry x="120" y="20" width="120" height="450" as="geometry" />
        </mxCell>
        <mxCell id="mW63rpHX_9EoTPeY_-Ee-6" value="3" style="rounded=0;whiteSpace=wrap;html=1;" vertex="1" parent="mW63rpHX_9EoTPeY_-Ee-2">
          <mxGeometry y="20" width="120" height="450" as="geometry" />
        </mxCell>
        <mxCell id="mW63rpHX_9EoTPeY_-Ee-9" value="4" style="rounded=0;whiteSpace=wrap;html=1;fillColor=#f5f5f5;strokeColor=#666666;fillStyle=dots;fontColor=#333333;" vertex="1" parent="mW63rpHX_9EoTPeY_-Ee-2">
          <mxGeometry y="90" width="890" height="70" as="geometry" />
        </mxCell>
        <mxCell id="mW63rpHX_9EoTPeY_-Ee-11" value="5" style="rounded=0;whiteSpace=wrap;html=1;fillColor=#f5f5f5;strokeColor=#666666;fillStyle=dots;fontColor=#333333;" vertex="1" parent="mW63rpHX_9EoTPeY_-Ee-2">
          <mxGeometry y="20" width="890" height="70" as="geometry" />
        </mxCell>
        <mxCell id="mW63rpHX_9EoTPeY_-Ee-12" value="4" style="rounded=0;whiteSpace=wrap;html=1;fillColor=#f5f5f5;strokeColor=#666666;fillStyle=dots;fontColor=#333333;" vertex="1" parent="mW63rpHX_9EoTPeY_-Ee-2">
          <mxGeometry y="330" width="890" height="70" as="geometry" />
        </mxCell>
        <mxCell id="mW63rpHX_9EoTPeY_-Ee-13" value="5" style="rounded=0;whiteSpace=wrap;html=1;fillColor=#f5f5f5;strokeColor=#666666;fillStyle=dots;fontColor=#333333;" vertex="1" parent="mW63rpHX_9EoTPeY_-Ee-2">
          <mxGeometry y="400" width="890" height="70" as="geometry" />
        </mxCell>
        <mxCell id="mW63rpHX_9EoTPeY_-Ee-14" value="" style="rounded=0;whiteSpace=wrap;html=1;fillColor=#6d8764;strokeColor=#3A5431;fillStyle=auto;sketch=1;curveFitting=1;jiggle=2;fontColor=#ffffff;rotation=-3;" vertex="1" parent="mW63rpHX_9EoTPeY_-Ee-2">
          <mxGeometry x="54.17" y="77.5" width="781.66" height="335" as="geometry" />
        </mxCell>
      </root>
    </mxGraphModel>
  </diagram>
</mxfile>
